<?xml version="1.0" encoding="UTF-8"?>
<svg
  xmlns="http://www.w3.org/2000/svg"
  viewBox="0 0 500 80"
  width="500"
  height="80"
  preserveAspectRatio="xMidYMid meet"
>
  <defs>
    <style>
      .st0{fill:#FFFFFF;}
      .st1{fill:#EE0000;}
      .text-primary{fill:#151515;}
      .text-secondary{fill:#151515;}
    </style>
  </defs>

  <!-- Red Hat logo -->
  <!-- NOTE: translate first, then scale -->
  <g transform="translate(0, 15) scale(0.35)">
    <g>
      <path class="st1" d="M129,85c12.5,0,30.6-2.6,30.6-17.5c0-1.2,0-2.3-0.3-3.4l-7.4-32.4c-1.7-7.1-3.2-10.3-15.7-16.6
        C126.4,10.2,105.3,2,99,2c-5.8,0-7.5,7.5-14.4,7.5c-6.7,0-11.6-5.6-17.9-5.6c-6,0-9.9,4.1-12.9,12.5c0,0-8.4,23.7-9.5,27.2
        C44,44.3,44,45,44,45.5C44,54.8,80.3,85,129,85 M161.5,73.6c1.7,8.2,1.7,9.1,1.7,10.1c0,14-15.7,21.8-36.4,21.8
        C80,105.5,39.1,78.1,39.1,60c0-2.8,0.6-5.4,1.5-7.3C23.8,53.5,2,56.5,2,75.7C2,107.2,76.6,146,135.7,146
        c45.3,0,56.7-20.5,56.7-36.6C192.3,96.6,181.4,82.2,161.5,73.6"/>
      <path d="M161.5,73.6c1.7,8.2,1.7,9.1,1.7,10.1c0,14-15.7,21.8-36.4,21.8C80,105.5,39.1,78.1,39.1,60c0-2.8,0.6-5.4,1.5-7.3
        l3.7-9.1C44,44.3,44,45,44,45.5C44,54.8,80.3,85,129,85c12.5,0,30.6-2.6,30.6-17.5c0-1.2,0-2.3-0.3-3.4L161.5,73.6z"/>
    </g>
  </g>

  <!-- Red Hat text -->
  <text
    class="text-primary"
    x="70"
    y="28"
    font-family="RedHatDisplay, Arial, sans-serif"
    font-size="40"
    font-weight="600"
  >Red Hat</text>

  <!-- Trusted Developer Libraries text -->
  <text
    class="text-secondary"
    x="70"
    y="52"
    font-family="RedHatDisplay, Arial, sans-serif"
    font-size="28"
    font-weight="400"
  >Trusted Developer Libraries</text>
</svg>
