<svg width="800" height="160" viewBox="0 0 800 160" fill="none" xmlns="http://www.w3.org/2000/svg">
<g clip-path="url(#clip0_325_1360)">
<path d="M61.5986 55.4999C67.5926 55.4999 76.2719 54.2532 76.2719 47.1084C76.2719 46.5329 76.2719 46.0055 76.128 45.478L72.5796 29.9417C71.7644 26.5371 71.0451 25.0026 65.0512 21.9817C60.3519 19.632 50.2341 15.7 47.2131 15.7C44.4319 15.7 43.6168 19.2964 40.3081 19.2964C37.0953 19.2964 34.7457 16.6111 31.7247 16.6111C28.8476 16.6111 26.9775 18.5771 25.539 22.6051C25.539 22.6051 21.511 33.9696 20.9836 35.6479C20.8397 35.9836 20.8397 36.3192 20.8397 36.559C20.8397 41.0185 38.2462 55.4999 61.5986 55.4999ZM77.1829 50.0334C77.9981 53.9654 77.9981 54.397 77.9981 54.8765C77.9981 61.5898 70.4697 65.33 60.5437 65.33C38.1023 65.33 18.4901 52.1912 18.4901 43.512C18.4901 42.1693 18.7778 40.9226 19.2094 40.0115C11.1535 40.3951 0.700012 41.8337 0.700012 51.0404C0.700012 66.1452 36.472 84.7504 64.8114 84.7504C86.5335 84.7504 92 74.9203 92 67.2001C91.952 61.0623 86.7253 54.1573 77.1829 50.0334Z" fill="#EE0000"/>
<path d="M77.1829 50.0334C77.9981 53.9654 77.9981 54.397 77.9981 54.8765C77.9981 61.5897 70.4697 65.33 60.5437 65.33C38.1023 65.33 18.4901 52.1912 18.4901 43.512C18.4901 42.1693 18.7778 40.9226 19.2093 40.0115L20.9835 35.6479C20.8397 35.9835 20.8397 36.3192 20.8397 36.559C20.8397 41.0185 38.2461 55.4999 61.5986 55.4999C67.5926 55.4999 76.2718 54.2531 76.2718 47.1083C76.2718 46.5329 76.2718 46.0054 76.128 45.478L77.1829 50.0334Z" fill="black"/>
<path d="M112.784 41V7.4H129.968C132.272 7.4 134.32 7.864 136.112 8.792C137.904 9.688 139.296 10.952 140.288 12.584C141.312 14.184 141.824 16.024 141.824 18.104C141.824 20.216 141.248 22.104 140.096 23.768C138.944 25.432 137.424 26.696 135.536 27.56L142.88 41H133.664L127.328 28.76H121.04V41H112.784ZM121.04 22.04H129.2C130.48 22.04 131.504 21.688 132.272 20.984C133.072 20.28 133.472 19.368 133.472 18.248C133.472 17.128 133.072 16.216 132.272 15.512C131.504 14.808 130.48 14.456 129.2 14.456H121.04V22.04ZM156.9 41.48C154.308 41.48 151.956 40.904 149.844 39.752C147.764 38.568 146.116 36.984 144.9 35C143.684 33.016 143.076 30.792 143.076 28.328C143.076 25.864 143.652 23.64 144.804 21.656C145.988 19.672 147.588 18.104 149.604 16.952C151.62 15.768 153.86 15.176 156.324 15.176C158.82 15.176 161.028 15.784 162.948 17C164.868 18.184 166.372 19.816 167.46 21.896C168.58 23.976 169.14 26.36 169.14 29.048V30.968H151.044C151.396 31.768 151.86 32.472 152.436 33.08C153.044 33.688 153.764 34.168 154.596 34.52C155.428 34.84 156.324 35 157.284 35C158.34 35 159.3 34.84 160.164 34.52C161.028 34.168 161.764 33.688 162.372 33.08L167.508 37.64C165.908 38.984 164.26 39.96 162.564 40.568C160.9 41.176 159.012 41.48 156.9 41.48ZM150.9 25.544H161.508C161.252 24.712 160.852 24.008 160.308 23.432C159.796 22.824 159.188 22.36 158.484 22.04C157.78 21.688 157.012 21.512 156.18 21.512C155.316 21.512 154.532 21.672 153.828 21.992C153.124 22.312 152.516 22.776 152.004 23.384C151.524 23.96 151.156 24.68 150.9 25.544ZM184.817 41.336C182.417 41.336 180.225 40.76 178.241 39.608C176.289 38.424 174.737 36.856 173.585 34.904C172.433 32.92 171.857 30.712 171.857 28.28C171.857 25.848 172.433 23.656 173.585 21.704C174.769 19.72 176.353 18.152 178.337 17C180.353 15.848 182.593 15.272 185.057 15.272C186.241 15.272 187.377 15.416 188.465 15.704C189.553 15.992 190.577 16.408 191.537 16.952V7.4L199.313 6.2V41H191.633V39.128C189.617 40.6 187.345 41.336 184.817 41.336ZM186.161 34.712C187.249 34.712 188.241 34.552 189.137 34.232C190.033 33.88 190.833 33.368 191.537 32.696V23.816C190.865 23.176 190.065 22.696 189.137 22.376C188.209 22.024 187.217 21.848 186.161 21.848C184.913 21.848 183.777 22.136 182.753 22.712C181.761 23.256 180.961 24.024 180.353 25.016C179.777 25.976 179.489 27.064 179.489 28.28C179.489 29.496 179.777 30.6 180.353 31.592C180.961 32.552 181.761 33.32 182.753 33.896C183.777 34.44 184.913 34.712 186.161 34.712ZM213.893 41V7.4H222.149V20.312H235.973V7.4H244.229V41H235.973V27.848H222.149V41H213.893ZM257.059 41.432C255.267 41.432 253.667 41.096 252.259 40.424C250.883 39.752 249.795 38.824 248.995 37.64C248.227 36.456 247.843 35.096 247.843 33.56C247.843 31.128 248.755 29.256 250.579 27.944C252.435 26.6 255.011 25.928 258.307 25.928C260.291 25.928 262.211 26.168 264.067 26.648V25.4C264.067 24.12 263.651 23.176 262.819 22.568C262.019 21.928 260.819 21.608 259.219 21.608C258.227 21.608 257.107 21.768 255.859 22.088C254.643 22.408 253.203 22.92 251.539 23.624L248.755 17.912C250.835 16.984 252.835 16.296 254.755 15.848C256.707 15.368 258.659 15.128 260.611 15.128C264.131 15.128 266.867 15.976 268.819 17.672C270.771 19.336 271.747 21.688 271.747 24.728V41H264.067V39.464C263.043 40.168 261.955 40.68 260.803 41C259.683 41.288 258.435 41.432 257.059 41.432ZM255.235 33.416C255.235 34.216 255.587 34.84 256.291 35.288C256.995 35.736 257.971 35.96 259.219 35.96C260.147 35.96 261.011 35.864 261.811 35.672C262.643 35.48 263.395 35.176 264.067 34.76V31.496C263.331 31.304 262.579 31.16 261.811 31.064C261.043 30.968 260.259 30.92 259.459 30.92C258.115 30.92 257.075 31.144 256.339 31.592C255.603 32.008 255.235 32.616 255.235 33.416ZM288.482 41.336C285.442 41.336 283.138 40.664 281.57 39.32C280.034 37.944 279.266 35.928 279.266 33.272V22.088H274.13V15.608H279.266V9.08L287.042 7.4V15.608H294.146V22.088H287.042V31.736C287.042 32.856 287.282 33.656 287.762 34.136C288.274 34.584 289.154 34.808 290.402 34.808C291.042 34.808 291.618 34.776 292.13 34.712C292.674 34.616 293.266 34.472 293.906 34.28V40.568C293.202 40.792 292.306 40.968 291.218 41.096C290.13 41.256 289.218 41.336 288.482 41.336Z" fill="#151515"/>
<path d="M125.241 111V73.5169H110.05V67.7741H146.915V73.5169H131.724V111H125.241ZM148.705 111V79.5686H154.88V83.5824C155.868 82.1004 157.083 80.9477 158.524 80.1243C160.006 79.2598 161.673 78.8275 163.525 78.8275C164.802 78.8687 165.851 79.054 166.675 79.3833V84.9409C166.098 84.6939 165.502 84.5293 164.884 84.4469C164.266 84.3234 163.649 84.2617 163.031 84.2617C161.22 84.2617 159.615 84.7557 158.215 85.7437C156.815 86.6906 155.704 88.0902 154.88 89.9428V111H148.705ZM183.364 111.618C180.935 111.618 178.794 111.103 176.941 110.074C175.089 109.045 173.648 107.604 172.619 105.751C171.59 103.857 171.075 101.696 171.075 99.2672V79.5686H177.188V98.2175C177.188 100.688 177.888 102.643 179.288 104.084C180.729 105.525 182.643 106.245 185.031 106.245C186.719 106.245 188.221 105.895 189.539 105.195C190.856 104.454 191.926 103.425 192.75 102.108V79.5686H198.925V111H192.75V107.789C190.321 110.341 187.192 111.618 183.364 111.618ZM217.042 111.618C214.325 111.618 211.772 111.226 209.385 110.444C207.038 109.621 205 108.468 203.271 106.986L206.667 102.911C208.273 104.187 209.92 105.175 211.608 105.875C213.337 106.533 215.086 106.863 216.856 106.863C219.08 106.863 220.891 106.43 222.291 105.566C223.69 104.701 224.39 103.569 224.39 102.17C224.39 101.017 223.978 100.111 223.155 99.4525C222.332 98.7938 221.056 98.341 219.327 98.094L213.645 97.2912C210.517 96.8384 208.17 95.8709 206.606 94.3889C205.041 92.9069 204.259 90.9308 204.259 88.4608C204.259 86.567 204.774 84.9203 205.803 83.5206C206.832 82.0798 208.273 80.9683 210.126 80.1861C211.978 79.3627 214.139 78.951 216.609 78.951C218.874 78.951 221.056 79.2804 223.155 79.9391C225.255 80.5978 227.272 81.6269 229.207 83.0266L226.057 87.1022C224.328 85.9495 222.64 85.1056 220.994 84.5704C219.388 84.0352 217.762 83.7677 216.115 83.7677C214.222 83.7677 212.699 84.1793 211.546 85.0027C210.393 85.7849 209.817 86.8141 209.817 88.0902C209.817 89.2429 210.208 90.1486 210.99 90.8073C211.813 91.4248 213.151 91.8571 215.004 92.1041L220.685 92.9069C223.814 93.3597 226.181 94.3271 227.786 95.8092C229.392 97.25 230.195 99.2055 230.195 101.676C230.195 103.569 229.618 105.278 228.466 106.801C227.313 108.283 225.749 109.456 223.773 110.321C221.797 111.185 219.553 111.618 217.042 111.618ZM247.799 111.556C244.752 111.556 242.426 110.856 240.821 109.456C239.215 108.015 238.412 105.936 238.412 103.219V84.7557H231.743V79.5686H238.412V71.5409L244.526 70.0589V79.5686H253.789V84.7557H244.526V101.799C244.526 103.405 244.876 104.557 245.576 105.257C246.317 105.916 247.511 106.245 249.157 106.245C250.022 106.245 250.783 106.183 251.442 106.06C252.142 105.936 252.883 105.751 253.665 105.504V110.691C252.842 110.979 251.874 111.185 250.763 111.309C249.692 111.473 248.704 111.556 247.799 111.556ZM272.923 111.556C269.835 111.556 267.036 110.835 264.525 109.394C262.055 107.954 260.079 105.998 258.597 103.528C257.156 101.058 256.435 98.2998 256.435 95.2534C256.435 92.2482 257.135 89.5311 258.535 87.1022C259.934 84.6322 261.828 82.6767 264.216 81.2358C266.604 79.7538 269.259 79.0128 272.182 79.0128C275.105 79.0128 277.698 79.7538 279.962 81.2358C282.227 82.6767 284.017 84.6528 285.335 87.164C286.693 89.634 287.373 92.4334 287.373 95.5622V97.2912H262.61C262.94 99.0202 263.578 100.564 264.525 101.923C265.513 103.281 266.748 104.351 268.23 105.134C269.753 105.916 271.4 106.307 273.17 106.307C274.693 106.307 276.154 106.08 277.554 105.628C278.995 105.134 280.189 104.434 281.136 103.528L285.088 107.418C283.235 108.818 281.321 109.868 279.345 110.568C277.41 111.226 275.269 111.556 272.923 111.556ZM262.672 92.6598H281.259C281.012 91.0131 280.436 89.5723 279.53 88.3373C278.666 87.0611 277.575 86.073 276.257 85.3732C274.981 84.6322 273.581 84.2617 272.058 84.2617C270.494 84.2617 269.053 84.6116 267.736 85.3114C266.418 86.0113 265.307 86.9993 264.401 88.2755C263.537 89.5105 262.96 90.972 262.672 92.6598ZM307.824 111.494C304.901 111.494 302.226 110.774 299.797 109.333C297.368 107.892 295.454 105.957 294.054 103.528C292.654 101.058 291.954 98.2998 291.954 95.2534C291.954 92.207 292.654 89.4694 294.054 87.0405C295.495 84.6116 297.43 82.6767 299.858 81.2358C302.287 79.795 304.984 79.0746 307.948 79.0746C309.677 79.0746 311.344 79.3421 312.95 79.8773C314.555 80.4125 316.037 81.1947 317.396 82.2239V67.7741L323.571 66.6008V111H317.458V107.974C314.782 110.321 311.571 111.494 307.824 111.494ZM308.627 106.122C310.439 106.122 312.085 105.792 313.567 105.134C315.09 104.475 316.367 103.528 317.396 102.293V88.152C316.367 86.9993 315.09 86.0936 313.567 85.4349C312.085 84.7351 310.439 84.3852 308.627 84.3852C306.651 84.3852 304.86 84.8586 303.255 85.8054C301.649 86.7523 300.373 88.0491 299.426 89.6958C298.479 91.3013 298.006 93.1333 298.006 95.1917C298.006 97.25 298.479 99.1026 299.426 100.749C300.373 102.396 301.649 103.713 303.255 104.701C304.86 105.648 306.651 106.122 308.627 106.122ZM344.53 111V67.7741H351.014V105.257H375.899V111H344.53ZM381.72 111V79.5686H387.895V111H381.72ZM384.808 74.505C383.778 74.505 382.893 74.1344 382.152 73.3934C381.411 72.6112 381.041 71.7056 381.041 70.6764C381.041 69.606 381.411 68.7209 382.152 68.0211C382.893 67.28 383.778 66.9095 384.808 66.9095C385.878 66.9095 386.784 67.28 387.525 68.0211C388.266 68.7209 388.636 69.606 388.636 70.6764C388.636 71.7056 388.266 72.6112 387.525 73.3934C386.784 74.1344 385.878 74.505 384.808 74.505ZM395.168 111V67.7741L401.343 66.6008V82.5326C403.978 80.2272 407.168 79.0746 410.914 79.0746C413.878 79.0746 416.554 79.795 418.942 81.2358C421.371 82.6767 423.285 84.6116 424.685 87.0405C426.085 89.4694 426.784 92.207 426.784 95.2534C426.784 98.2998 426.064 101.058 424.623 103.528C423.224 105.957 421.309 107.892 418.88 109.333C416.493 110.774 413.796 111.494 410.791 111.494C409.062 111.494 407.374 111.226 405.727 110.691C404.122 110.115 402.64 109.312 401.281 108.283V111H395.168ZM410.112 106.122C412.129 106.122 413.92 105.648 415.484 104.701C417.09 103.755 418.366 102.478 419.313 100.873C420.259 99.2261 420.733 97.3735 420.733 95.3152C420.733 93.2568 420.259 91.4042 419.313 89.7575C418.366 88.1108 417.09 86.8141 415.484 85.8672C413.92 84.9203 412.129 84.4469 410.112 84.4469C408.341 84.4469 406.695 84.7763 405.172 85.4349C403.648 86.0936 402.372 87.0199 401.343 88.2138V102.417C402.372 103.569 403.648 104.475 405.172 105.134C406.736 105.792 408.383 106.122 410.112 106.122ZM432.677 111V79.5686H438.852V83.5824C439.84 82.1004 441.055 80.9477 442.495 80.1243C443.977 79.2598 445.645 78.8275 447.497 78.8275C448.773 78.8687 449.823 79.054 450.647 79.3833V84.9409C450.07 84.6939 449.473 84.5293 448.856 84.4469C448.238 84.3234 447.621 84.2617 447.003 84.2617C445.192 84.2617 443.586 84.7557 442.187 85.7437C440.787 86.6906 439.675 88.0902 438.852 89.9428V111H432.677ZM464.268 111.556C462.004 111.556 460.007 111.165 458.278 110.382C456.549 109.559 455.191 108.427 454.203 106.986C453.215 105.545 452.721 103.878 452.721 101.984C452.721 99.0202 453.853 96.6943 456.117 95.0064C458.381 93.2774 461.489 92.4128 465.441 92.4128C468.529 92.4128 471.39 93.0098 474.025 94.2036V90.8691C474.025 88.6048 473.366 86.917 472.049 85.8054C470.773 84.6939 468.879 84.1382 466.368 84.1382C464.927 84.1382 463.424 84.3646 461.86 84.8174C460.295 85.2291 458.546 85.8878 456.611 86.7935L454.326 82.1621C456.714 81.0506 458.937 80.2478 460.995 79.7538C463.054 79.2186 465.133 78.951 467.232 78.951C471.308 78.951 474.457 79.9185 476.68 81.8534C478.944 83.7882 480.076 86.5465 480.076 90.128V111H474.025V108.283C472.625 109.394 471.122 110.218 469.517 110.753C467.911 111.288 466.162 111.556 464.268 111.556ZM458.649 101.861C458.649 103.384 459.287 104.619 460.563 105.566C461.88 106.513 463.589 106.986 465.688 106.986C467.335 106.986 468.838 106.739 470.196 106.245C471.596 105.751 472.872 104.99 474.025 103.96V98.6497C472.831 97.9499 471.575 97.4559 470.258 97.1677C468.982 96.8384 467.541 96.6737 465.935 96.6737C463.671 96.6737 461.88 97.1471 460.563 98.094C459.287 98.9997 458.649 100.255 458.649 101.861ZM487.192 111V79.5686H493.367V83.5824C494.355 82.1004 495.569 80.9477 497.01 80.1243C498.492 79.2598 500.16 78.8275 502.012 78.8275C503.288 78.8687 504.338 79.054 505.161 79.3833V84.9409C504.585 84.6939 503.988 84.5293 503.371 84.4469C502.753 84.3234 502.136 84.2617 501.518 84.2617C499.707 84.2617 498.101 84.7557 496.702 85.7437C495.302 86.6906 494.19 88.0902 493.367 89.9428V111H487.192ZM510.107 111V79.5686H516.282V111H510.107ZM513.195 74.505C512.166 74.505 511.281 74.1344 510.54 73.3934C509.799 72.6112 509.428 71.7056 509.428 70.6764C509.428 69.606 509.799 68.7209 510.54 68.0211C511.281 67.28 512.166 66.9095 513.195 66.9095C514.265 66.9095 515.171 67.28 515.912 68.0211C516.653 68.7209 517.024 69.606 517.024 70.6764C517.024 71.7056 516.653 72.6112 515.912 73.3934C515.171 74.1344 514.265 74.505 513.195 74.505ZM538.622 111.556C535.535 111.556 532.736 110.835 530.224 109.394C527.754 107.954 525.778 105.998 524.296 103.528C522.855 101.058 522.135 98.2998 522.135 95.2534C522.135 92.2482 522.835 89.5311 524.234 87.1022C525.634 84.6322 527.528 82.6767 529.916 81.2358C532.303 79.7538 534.959 79.0128 537.881 79.0128C540.804 79.0128 543.398 79.7538 545.662 81.2358C547.926 82.6767 549.717 84.6528 551.034 87.164C552.393 89.634 553.072 92.4334 553.072 95.5622V97.2912H528.31C528.639 99.0202 529.277 100.564 530.224 101.923C531.212 103.281 532.447 104.351 533.929 105.134C535.453 105.916 537.099 106.307 538.869 106.307C540.393 106.307 541.854 106.08 543.254 105.628C544.695 105.134 545.889 104.434 546.835 103.528L550.787 107.418C548.935 108.818 547.021 109.868 545.045 110.568C543.11 111.226 540.969 111.556 538.622 111.556ZM528.372 92.6598H546.959C546.712 91.0131 546.136 89.5723 545.23 88.3373C544.365 87.0611 543.274 86.073 541.957 85.3732C540.681 84.6322 539.281 84.2617 537.758 84.2617C536.194 84.2617 534.753 84.6116 533.435 85.3114C532.118 86.0113 531.006 86.9993 530.101 88.2755C529.236 89.5105 528.66 90.972 528.372 92.6598ZM570.062 111.618C567.345 111.618 564.792 111.226 562.404 110.444C560.058 109.621 558.02 108.468 556.291 106.986L559.687 102.911C561.293 104.187 562.94 105.175 564.628 105.875C566.357 106.533 568.106 106.863 569.876 106.863C572.099 106.863 573.911 106.43 575.31 105.566C576.71 104.701 577.41 103.569 577.41 102.17C577.41 101.017 576.998 100.111 576.175 99.4525C575.352 98.7938 574.075 98.341 572.346 98.094L566.665 97.2912C563.537 96.8384 561.19 95.8709 559.626 94.3889C558.061 92.9069 557.279 90.9308 557.279 88.4608C557.279 86.567 557.794 84.9203 558.823 83.5206C559.852 82.0798 561.293 80.9683 563.145 80.1861C564.998 79.3627 567.159 78.951 569.629 78.951C571.894 78.951 574.075 79.2804 576.175 79.9391C578.275 80.5978 580.292 81.6269 582.227 83.0266L579.077 87.1022C577.348 85.9495 575.66 85.1056 574.014 84.5704C572.408 84.0352 570.782 83.7677 569.135 83.7677C567.242 83.7677 565.718 84.1793 564.566 85.0027C563.413 85.7849 562.837 86.8141 562.837 88.0902C562.837 89.2429 563.228 90.1486 564.01 90.8073C564.833 91.4248 566.171 91.8571 568.024 92.1041L573.705 92.9069C576.834 93.3597 579.201 94.3271 580.806 95.8092C582.412 97.25 583.215 99.2055 583.215 101.676C583.215 103.569 582.638 105.278 581.486 106.801C580.333 108.283 578.769 109.456 576.793 110.321C574.816 111.185 572.573 111.618 570.062 111.618Z" fill="#151515"/>
</g>
<defs>
<clipPath id="clip0_325_1360">
<rect width="800" height="160" fill="white"/>
</clipPath>
</defs>
</svg>
